<?xml version="1.0" standalone="no"?>
<!DOCTYPE svg PUBLIC "-//W3C//DTD SVG 20010904//EN"
 "http://www.w3.org/TR/2001/REC-SVG-20010904/DTD/svg10.dtd">
<svg version="1.0" xmlns="http://www.w3.org/2000/svg"
 width="1280.000000pt" height="731.000000pt" viewBox="0 0 1280.000000 731.000000"
 preserveAspectRatio="xMidYMid meet">

<g transform="translate(0.000000,731.000000) scale(0.100000,-0.100000)"
fill="#000000" stroke="none">
<path d="M6085 6355 c-306 -41 -571 -122 -843 -259 -95 -48 -346 -208 -433
-277 -21 -17 -29 -18 -55 -9 -16 7 -78 12 -139 12 -121 1 -205 -21 -302 -78
-120 -69 -222 -205 -254 -334 -21 -88 -15 -221 14 -314 l26 -79 -50 -99 c-27
-54 -63 -132 -79 -173 -17 -42 -43 -102 -59 -133 -16 -32 -41 -103 -56 -158
-15 -54 -37 -124 -50 -154 -12 -30 -32 -116 -44 -190 l-21 -135 -60 -55 c-105
-96 -100 -61 -100 -680 0 -514 1 -536 20 -567 43 -71 167 -123 291 -123 l77 0
85 -174 c47 -96 123 -235 170 -308 46 -73 92 -150 102 -171 10 -21 39 -55 64
-75 25 -20 104 -95 175 -165 117 -116 292 -270 389 -341 l37 -28 0 506 c0 278
3 506 6 506 3 0 92 -67 197 -148 106 -82 206 -159 224 -172 41 -29 45 -41 27
-75 -11 -21 -14 -79 -14 -267 l0 -241 -177 4 -178 4 -3 -94 c-2 -80 0 -95 15
-107 10 -8 126 -87 258 -176 l239 -161 195 10 c154 8 218 7 310 -4 601 -71
1220 81 1737 428 396 265 738 640 947 1039 107 203 214 513 247 710 7 46 26
104 49 149 l36 74 3 406 c2 293 -1 413 -9 434 -6 15 -31 44 -54 65 -41 35 -47
48 -103 215 l-60 179 29 74 c20 51 40 84 64 105 47 42 46 70 -4 106 -32 22
-43 39 -55 84 -9 30 -16 71 -16 91 0 41 -26 79 -55 80 -11 0 -35 -3 -53 -7
l-33 -8 3 99 3 99 42 3 c33 2 47 9 63 32 31 44 26 50 -43 50 l-64 0 -12 43
c-28 96 -99 160 -220 197 -49 16 -92 20 -197 20 l-135 0 -77 63 c-452 370
-855 564 -1339 643 -134 22 -561 28 -698 9z m567 -104 l37 -6 -40 -63 c-32
-51 -38 -66 -28 -78 26 -31 55 -16 109 57 l53 71 46 -7 c52 -7 139 -27 223
-51 49 -15 55 -19 42 -31 -19 -20 -18 -37 7 -59 20 -18 21 -18 71 8 l50 27 52
-20 c57 -23 263 -125 314 -156 l33 -20 -43 -16 c-104 -40 -169 -137 -170 -252
-1 -127 86 -238 203 -259 32 -6 43 -16 78 -70 71 -109 67 -109 134 0 32 52 62
94 67 94 15 0 23 -47 15 -83 -4 -17 -7 -67 -6 -109 1 -43 -3 -79 -9 -83 -17
-10 -11 -49 21 -149 28 -87 35 -99 85 -145 30 -28 72 -55 92 -61 49 -13 466
-13 516 1 57 16 129 92 144 152 7 26 14 47 16 47 2 0 17 -5 33 -10 23 -8 33
-21 42 -49 15 -51 15 -51 -17 -51 -35 0 -52 -16 -52 -52 0 -32 30 -52 67 -45
22 4 24 2 18 -20 -11 -46 -46 -133 -54 -133 -4 0 -25 18 -46 40 -21 22 -48 40
-58 40 -11 0 -35 -14 -55 -31 -66 -58 -137 -84 -227 -84 -92 0 -140 16 -222
77 -29 21 -57 38 -63 38 -5 0 -28 -16 -49 -36 l-40 -35 -25 40 c-15 22 -26 45
-26 51 0 6 -11 33 -25 60 -14 27 -25 59 -25 70 0 11 -7 23 -16 27 -21 8 -82
-25 -102 -55 -19 -29 -4 -66 37 -90 44 -25 101 -153 94 -210 -3 -24 -1 -48 4
-53 4 -4 32 -11 61 -13 28 -3 76 -18 105 -32 28 -15 75 -35 102 -44 32 -11 54
-25 62 -41 27 -53 71 -63 105 -24 14 16 39 28 77 35 96 20 152 39 218 75 35
19 76 35 91 35 26 0 29 -6 60 -97 17 -53 30 -98 29 -99 -8 -9 -350 -30 -781
-49 l-139 -6 6 22 c9 33 -12 127 -41 189 -36 77 -132 170 -208 200 -32 13 -60
24 -62 25 -1 1 9 27 24 58 25 55 25 62 22 230 l-3 173 -38 76 c-41 84 -97 142
-175 180 -69 34 -234 38 -314 8 -60 -22 -144 -89 -167 -134 l-14 -26 -57 54
c-31 29 -81 66 -111 82 -49 26 -63 28 -159 29 -91 0 -112 -3 -153 -24 -63 -30
-140 -108 -174 -174 -25 -49 -27 -63 -35 -256 -10 -227 -11 -234 -87 -317 -53
-58 -111 -156 -136 -229 -10 -30 -19 -95 -22 -162 l-6 -113 -32 0 -32 0 -6 84
c-7 100 -32 160 -88 211 l-39 35 0 375 c0 293 3 375 13 375 6 0 45 31 85 68
55 50 72 71 67 84 -12 31 -43 32 -82 1 -19 -15 -46 -36 -59 -46 l-23 -18 -3
92 -3 91 33 13 c18 8 35 21 38 30 9 23 -16 46 -45 43 -23 -3 -29 3 -48 51 -12
29 -32 64 -44 77 l-22 24 49 0 c28 0 55 5 62 12 19 19 14 48 -12 57 -21 9
-781 5 -886 -3 l-45 -4 30 21 c138 102 511 307 557 307 9 0 57 -20 105 -44
224 -111 264 -128 279 -115 29 24 12 52 -52 85 -33 17 -80 45 -104 63 -23 17
-50 31 -59 31 -9 1 -27 7 -41 15 -19 10 -21 15 -10 19 64 22 283 76 309 76 5
0 31 -29 56 -64 48 -68 69 -83 91 -65 20 16 17 39 -9 79 -38 56 -39 67 -9 74
15 3 82 9 150 12 l122 7 0 -35 c0 -42 23 -67 48 -51 15 9 25 30 38 80 3 13
148 9 236 -6z m1076 -458 c-2 -10 -19 -26 -38 -36 -24 -11 -35 -24 -35 -39 0
-16 -9 -24 -30 -30 -27 -7 -55 -32 -55 -48 0 -3 35 -5 78 -4 60 1 76 4 74 15
-2 8 -10 19 -18 26 -14 10 -13 14 5 32 50 50 101 4 101 -90 0 -78 -17 -152
-42 -184 -25 -31 -43 -21 -52 30 -7 34 -8 35 -53 35 -88 0 -146 58 -146 146 0
99 64 164 160 164 46 0 54 -3 51 -17z m-2983 -78 c22 -10 42 -20 45 -24 3 -3
11 -6 19 -6 8 0 16 -6 19 -14 3 -10 -1 -12 -16 -9 -15 4 -19 2 -15 -8 3 -8 8
-14 12 -14 15 0 61 -109 67 -160 13 -116 -31 -187 -157 -250 -86 -44 -100 -57
-76 -75 46 -33 -7 -105 -76 -105 -40 0 -41 0 -19 -16 24 -16 30 -58 10 -70 -7
-4 -48 -9 -92 -11 -51 -2 -85 -8 -95 -17 -9 -8 -28 -17 -42 -21 -43 -11 -124
90 -165 209 -96 272 60 542 351 606 58 13 183 4 230 -15z m922 -71 c15 -11 38
-38 50 -60 22 -37 23 -49 23 -286 l0 -248 -90 0 -90 0 0 168 c0 154 -2 171
-22 212 -44 85 -87 99 -295 100 -137 0 -143 1 -154 23 -6 12 -29 44 -51 70
l-40 48 320 -3 c307 -3 322 -4 349 -24z m-773 -13 c-2 -3 -12 3 -22 13 -16 17
-16 18 5 5 12 -7 20 -15 17 -18z m3660 -111 c27 -14 63 -42 80 -63 l31 -39 0
-223 c0 -249 -1 -252 -75 -302 -32 -22 -42 -23 -242 -23 -236 0 -261 6 -315
77 -28 36 -28 37 -31 212 -5 235 -2 252 56 310 70 70 114 81 297 78 139 -2
155 -4 199 -27z m-3135 -91 c17 -6 36 -19 41 -29 6 -10 10 -77 10 -149 l0
-131 -166 0 c-154 0 -166 1 -159 18 4 9 10 42 14 72 l6 55 115 3 c63 1 119 7
124 12 5 5 6 20 2 34 -6 25 -7 25 -123 28 l-117 3 -12 48 -12 47 123 0 c67 0
136 -5 154 -11z m1988 -138 c16 -8 15 -10 -7 -15 -14 -2 -59 -7 -100 -11 -41
-3 -85 -12 -97 -21 -13 -8 -23 -12 -23 -9 0 9 -42 -35 -73 -77 -16 -20 -30
-48 -33 -62 -2 -14 -9 -37 -14 -51 -6 -15 -11 -43 -11 -63 -1 -30 -3 -25 -11
23 -12 77 -4 133 28 181 57 86 146 128 256 120 37 -3 76 -9 85 -15z m-712 -11
c-11 -5 -34 -9 -51 -9 -44 -1 -127 -46 -168 -91 -51 -57 -66 -118 -67 -284 0
-112 -4 -149 -18 -181 l-18 -40 3 55 c2 30 5 127 7 215 4 137 7 166 25 200 47
92 136 145 242 144 45 0 59 -3 45 -9z m-1251 -297 c3 -21 19 -67 36 -101 l30
-64 -78 42 c-42 23 -86 50 -98 61 -18 17 -36 19 -157 19 l-137 0 26 40 27 40
172 0 172 0 7 -37z m1306 27 c-8 -5 -58 -10 -110 -10 -65 0 -90 3 -80 10 8 5
58 10 110 10 65 0 90 -3 80 -10z m800 -118 c0 -102 -3 -123 -22 -162 -34 -65
-63 -82 -159 -90 -96 -9 -130 0 -175 42 -41 38 -54 86 -54 197 l0 91 163 0
c140 1 167 3 197 20 19 11 38 19 43 20 4 0 7 -53 7 -118z m-634 -163 c-8 -20
-30 -50 -48 -68 -29 -29 -38 -32 -73 -27 -22 3 -58 2 -80 -4 -51 -12 -112 14
-146 61 -21 29 -24 48 -27 132 l-4 97 94 0 c123 1 218 20 260 52 l33 26 3
-117 c2 -86 -1 -127 -12 -152z m-2696 116 c24 -24 42 -46 39 -48 -2 -2 -21
-14 -42 -27 -22 -12 -51 -39 -65 -59 -22 -29 -33 -35 -54 -33 -16 2 -28 8 -28
13 0 16 90 199 98 199 4 0 28 -20 52 -45z m1180 -80 c0 -2 -6 -5 -13 -8 -8 -3
-14 1 -14 8 0 7 6 11 14 8 7 -3 13 -6 13 -8z m-576 -53 c3 -5 -6 -21 -19 -38
-19 -22 -27 -26 -33 -16 -16 24 -2 62 24 62 12 0 25 -4 28 -8z m-434 -17 c25
-14 24 -14 -15 -12 -91 3 -142 -52 -132 -140 4 -40 3 -43 -10 -30 -21 21 -28
91 -13 128 25 60 111 87 170 54z m675 -21 c57 -37 65 -119 16 -168 -28 -27
-38 -31 -86 -30 -61 0 -89 18 -112 72 -12 29 -12 37 6 78 31 70 110 92 176 48z
m417 -2 c-39 -33 -61 -91 -55 -146 l4 -41 -20 24 c-12 13 -21 33 -22 45 -4 69
14 105 64 130 51 25 66 19 29 -12z m248 -92 c0 -85 -2 -100 -16 -100 -12 0
-14 5 -8 18 5 9 9 54 9 100 0 45 3 82 8 82 4 0 7 -45 7 -100z m3000 -12 c0
-13 -104 -78 -161 -100 -34 -13 -87 -22 -145 -26 -109 -6 -187 16 -285 79
l-62 41 27 26 c22 23 29 25 44 14 45 -33 147 -74 204 -82 107 -16 222 12 308
73 l35 25 17 -21 c10 -12 18 -25 18 -29z m-2230 22 c0 -13 -7 -20 -18 -20 -37
0 -141 -61 -186 -110 -55 -58 -96 -140 -96 -190 0 -19 -3 -65 -7 -102 -5 -57
-9 -68 -24 -68 -17 0 -19 10 -19 110 0 86 4 121 21 164 34 92 132 176 254 218
65 22 75 22 75 -2z m-1283 -22 c-3 -7 -5 -2 -5 12 0 14 2 19 5 13 2 -7 2 -19
0 -25z m1463 -25 c30 -8 69 -13 87 -11 47 6 42 -16 -10 -41 -51 -25 -76 -26
-122 -7 -34 15 -55 41 -55 72 0 12 5 15 23 10 12 -4 47 -14 77 -23z m480 18
c0 -6 -5 -13 -10 -16 -6 -4 -7 -11 -4 -17 5 -7 1 -9 -9 -5 -10 3 -17 2 -17 -3
0 -6 7 -10 15 -10 8 0 15 -9 15 -20 0 -11 -5 -20 -11 -20 -6 0 -19 -10 -30
-22 -16 -20 -20 -21 -29 -8 -8 13 -10 13 -10 -2 0 -9 -6 -19 -12 -22 -10 -3
-8 -9 5 -19 16 -14 16 -15 -6 -29 -16 -11 -26 -33 -35 -78 -7 -34 -12 -64 -10
-66 2 -2 18 -4 36 -6 35 -3 39 -20 4 -23 -11 -1 -19 2 -16 6 2 4 -5 7 -16 6
-11 -1 -20 -8 -20 -15 0 -8 -6 -12 -14 -9 -7 3 -17 2 -22 -3 -5 -5 -22 -10
-39 -12 -29 -3 -30 -1 -33 42 -7 93 30 199 94 270 51 56 174 113 174 81z m221
-9 c85 3 90 2 87 -17 -4 -29 -64 -55 -126 -55 -43 0 -58 5 -77 25 -37 36 -32
75 7 54 12 -6 59 -9 109 -7z m-2566 -82 c3 -5 1 -10 -4 -10 -6 0 -11 5 -11 10
0 6 2 10 4 10 3 0 8 -4 11 -10z m388 -259 c32 -73 57 -135 55 -136 -2 -1 -73
-5 -158 -9 -85 -3 -208 -8 -272 -12 l-118 -7 0 94 c0 70 5 105 19 135 20 44
61 82 98 89 12 3 34 7 47 10 14 3 32 12 41 21 14 14 22 15 58 5 33 -10 50 -9
82 1 l40 14 25 -36 c13 -19 51 -95 83 -169z m-870 182 c30 -5 37 -10 37 -29 0
-17 7 -24 28 -27 15 -2 -10 -5 -54 -6 -96 -1 -119 -16 -84 -51 15 -15 31 -20
60 -18 22 1 42 -1 46 -5 3 -3 3 -55 -1 -115 l-7 -109 -86 -6 c-47 -4 -89 -4
-94 -1 -4 3 -8 64 -8 135 0 109 -3 131 -16 136 -34 13 -45 -19 -51 -156 l-6
-131 -36 0 c-20 0 -73 -3 -118 -7 l-83 -6 0 108 c0 89 4 116 20 151 37 76 142
124 271 124 48 0 70 4 80 16 8 10 21 14 38 10 14 -4 43 -9 64 -13z m1197 -4
c47 4 71 3 163 -7 131 -15 187 -78 187 -209 l0 -73 -75 0 -74 0 -3 83 c-3 74
-5 82 -23 82 -18 0 -20 -8 -23 -82 l-3 -81 -97 -7 c-53 -3 -126 -7 -162 -8
l-65 -2 -19 56 -20 56 23 57 c13 31 37 77 53 101 29 44 32 45 67 38 20 -4 52
-6 71 -4z m1720 -191 c0 -27 -2 -28 -45 -28 -43 0 -45 1 -45 30 0 23 6 33 23
39 34 13 67 -7 67 -41z m439 15 c2 -2 -9 -3 -25 -2 -16 0 -23 3 -16 6 6 2 9
10 5 16 -4 7 2 5 13 -3 10 -8 21 -16 23 -17z m-1103 -48 c21 -32 4 -58 -35
-53 -29 3 -41 39 -21 64 18 21 37 17 56 -11z m2362 -42 c15 -10 32 -22 38 -28
10 -10 -175 -22 -1006 -66 -91 -4 -284 -15 -430 -24 -252 -15 -371 -21 -820
-45 -107 -5 -274 -14 -370 -19 -498 -28 -1047 -55 -1615 -81 -126 -5 -311 -14
-410 -19 -99 -5 -281 -12 -405 -16 l-225 -6 25 21 c60 50 74 52 310 61 124 5
315 13 425 19 110 6 331 15 490 20 350 12 671 26 860 40 213 14 485 29 740 40
521 23 1083 53 1465 80 74 5 259 15 410 21 151 6 277 13 279 15 2 2 51 4 108
4 81 0 110 -4 131 -17z m-220 -630 l-3 -388 -92 -3 -93 -3 0 391 0 390 95 0
95 0 -2 -387z m-370 -10 l-3 -388 -45 0 -45 0 -97 164 c-53 90 -119 191 -145
225 l-48 61 -3 -237 -2 -238 -85 0 -85 0 0 384 0 383 128 8 127 7 73 -78 72
-79 0 82 c0 93 -4 89 103 92 l57 1 -2 -387z m-720 55 c-3 -260 -5 -297 -21
-330 -28 -55 -84 -108 -146 -137 -47 -22 -69 -26 -141 -25 -98 1 -140 16 -201
71 -82 74 -84 81 -87 400 l-3 281 86 4 c48 2 89 1 91 -1 2 -2 4 -112 4 -243 0
-260 4 -283 55 -306 60 -27 141 -5 164 45 7 15 11 115 11 272 0 136 3 251 7
254 3 4 46 7 95 7 l89 0 -3 -292z m-758 -123 l0 -375 -44 0 -44 0 -82 148
c-81 145 -153 256 -184 281 -15 12 -16 -7 -16 -211 l0 -225 -52 -7 c-29 -3
-68 -6 -85 -6 l-33 0 0 370 0 370 139 0 139 0 46 -51 c25 -28 46 -55 46 -60 0
-5 3 -9 8 -9 4 0 6 31 4 69 l-4 70 29 4 c15 2 52 5 81 6 l52 1 0 -375z m-690
-40 l0 -375 -32 0 c-18 0 -63 -3 -100 -6 l-68 -7 -2 184 -3 184 -77 -134 -76
-134 -35 54 c-18 30 -53 87 -77 127 -23 40 -46 74 -49 77 -4 2 -5 -81 -3 -185
l5 -189 -94 -3 c-52 -2 -97 -1 -102 3 -4 3 -6 171 -5 375 l3 369 90 3 90 2 89
-145 c49 -79 93 -142 97 -139 4 2 38 55 75 117 37 62 80 131 96 155 l29 42 74
0 75 0 0 -375z m-1073 293 c68 -25 151 -101 186 -171 98 -193 21 -426 -171
-519 -60 -28 -77 -32 -157 -32 -81 -1 -97 2 -155 30 -92 45 -143 93 -184 174
-41 83 -52 156 -36 236 48 236 288 366 517 282z m-779 -32 c29 -8 73 -26 98
-41 51 -30 53 -20 -29 -117 l-48 -56 -42 24 c-56 32 -115 32 -176 -1 -63 -35
-94 -82 -99 -153 -10 -165 159 -249 300 -149 16 10 26 4 80 -50 61 -61 62 -62
43 -83 -29 -32 -134 -79 -200 -90 -239 -38 -440 163 -405 407 31 223 256 368
478 309z m2240 -731 c117 -28 170 -57 298 -161 100 -82 206 -259 239 -396 19
-83 19 -234 -1 -312 -54 -209 -220 -374 -459 -457 -76 -26 -109 -32 -215 -36
-186 -7 -313 26 -445 117 l-45 31 0 154 c0 92 4 156 10 160 6 3 10 44 10 91
l0 84 -50 36 c-58 42 -63 64 -31 155 32 95 62 142 136 216 302 302 825 160
930 -252 22 -86 18 -207 -11 -297 -6 -20 50 -60 72 -51 42 16 66 236 39 357
-64 291 -297 479 -608 494 -138 6 -208 -8 -326 -65 -162 -78 -281 -221 -327
-393 -10 -36 -20 -69 -24 -73 -4 -4 -17 1 -30 11 -22 18 -22 21 -11 73 7 30
34 97 59 149 39 79 61 109 132 180 95 95 185 146 313 180 90 24 256 26 345 5z
m-764 -154 l-40 -38 -190 -7 c-104 -3 -286 -11 -404 -16 -118 -5 -363 -14
-545 -20 -181 -6 -397 -15 -478 -21 -277 -17 -401 -7 -437 36 -11 13 -8 15 16
15 16 0 155 7 309 15 154 8 411 19 570 25 334 11 1006 39 1050 44 17 1 66 3
110 4 l80 1 -41 -38z m2571 20 c19 -4 30 -13 29 -23 -1 -9 11 -22 26 -28 15
-6 42 -27 60 -45 29 -30 32 -38 27 -72 -4 -21 -13 -42 -20 -48 -9 -7 -11 -17
-6 -30 35 -90 -31 -212 -127 -236 l-44 -11 -2 -165 -3 -165 -90 107 c-49 59
-109 130 -133 158 -73 87 -87 127 -87 242 0 89 3 106 27 151 35 66 113 136
175 157 50 16 116 20 168 8z m-475 -670 l0 -608 -121 -83 c-90 -62 -126 -80
-142 -76 -21 6 -163 134 -399 363 -106 102 -113 113 -88 148 18 24 60 177 70
257 21 159 -21 361 -105 497 l-42 69 45 6 c24 3 189 11 366 16 176 6 332 12
346 14 14 2 35 4 48 5 l22 1 0 -609z m-2207 492 c-3 -10 -9 -22 -13 -28 -4 -5
-20 -45 -35 -87 -18 -50 -32 -75 -39 -71 -23 14 -113 74 -161 108 -61 44 -130
65 -207 65 -75 0 -80 -12 -38 -86 26 -46 28 -55 13 -50 -18 8 -118 26 -140 26
-9 0 -13 -16 -13 -46 l0 -46 -47 38 c-27 21 -54 44 -61 51 -7 7 -19 13 -25 13
-7 0 -22 3 -34 6 l-23 6 0 -487 0 -487 -72 63 c-40 35 -117 107 -171 159 l-98
94 58 16 c79 22 113 42 156 89 l37 41 0 219 0 219 -27 25 c-16 14 -52 47 -82
75 l-54 49 109 6 c60 4 291 12 514 18 222 5 406 12 409 15 2 2 15 4 27 4 18 0
22 -4 17 -17z m-1340 -113 l-73 -69 0 -128 0 -128 -21 35 c-24 39 -179 346
-179 355 0 3 78 5 173 5 l172 -1 -72 -69z m256 -37 l71 -68 -6 -74 c-5 -56 -9
-69 -15 -52 -5 12 -22 29 -39 39 -27 15 -30 22 -30 67 0 28 -4 55 -8 61 -12
18 -44 32 -63 27 -23 -6 -27 -21 -31 -110 -2 -63 0 -75 20 -96 25 -26 30 -82
8 -90 -7 -3 -27 8 -42 24 -16 17 -44 39 -61 51 -32 19 -33 22 -33 88 l0 68 72
66 c40 36 75 66 79 66 4 0 39 -30 78 -67z m941 -118 c102 -67 206 -135 232
-151 27 -16 48 -34 48 -40 0 -6 -16 -16 -36 -22 -36 -11 -38 -10 -238 122
-110 73 -209 136 -218 139 -14 5 -18 18 -18 52 0 56 -20 64 230 -100z m-235
-85 c166 -122 225 -171 225 -189 0 -6 -16 -11 -37 -11 -33 1 -57 16 -183 115
-80 63 -152 124 -162 135 -15 18 -15 60 1 60 3 0 74 -50 156 -110z m-788 -200
c9 0 13 -17 13 -67 l0 -66 -25 23 c-23 22 -25 22 -49 6 -32 -20 -55 -20 -78 1
-15 14 -18 32 -18 120 l0 103 72 -60 c39 -33 77 -60 85 -60z m2586 -670 c114
-115 207 -211 207 -213 0 -2 -19 -10 -41 -17 l-42 -14 -202 207 -203 207 27
20 c14 10 31 20 37 20 5 0 103 -94 217 -210z m-1019 109 c51 -20 120 -36 193
-45 101 -13 126 -13 222 0 59 8 136 25 170 36 l62 22 102 -104 c56 -58 146
-150 200 -205 l99 -100 -149 -36 c-270 -65 -330 -71 -623 -71 -181 0 -291 4
-347 14 l-83 14 0 278 0 279 38 -26 c20 -14 73 -39 116 -56z"/>
<path d="M6970 6075 c-14 -8 -59 -31 -100 -52 -78 -40 -97 -67 -66 -93 13 -10
25 -8 68 13 29 14 83 39 121 56 52 23 67 35 67 51 0 13 -9 24 -26 30 -32 13
-34 13 -64 -5z"/>
<path d="M6300 6000 c-65 -21 -308 -109 -332 -120 -30 -14 -38 -40 -13 -40 13
0 15 -21 15 -130 0 -113 2 -130 18 -139 49 -26 338 -131 361 -131 15 0 63 16
108 34 78 33 82 34 88 15 8 -24 50 -35 70 -19 8 7 15 25 15 41 0 22 8 32 40
50 l40 23 0 118 c0 115 1 118 26 134 14 9 21 20 17 24 -17 15 -396 151 -417
149 -6 0 -22 -4 -36 -9z m141 -230 c74 21 105 22 83 1 -5 -5 -43 -20 -84 -34
l-75 -26 -3 -73 c-2 -40 -6 -76 -11 -81 -4 -4 -52 9 -107 29 -54 20 -108 37
-119 38 -11 2 -30 8 -43 15 -20 11 -22 19 -22 95 l0 82 32 15 c30 15 36 14
150 -34 l119 -49 80 22z"/>
<path d="M6850 5765 c-6 -8 -10 -22 -8 -32 3 -16 16 -18 142 -18 119 0 140 2
149 17 8 12 7 21 -2 32 -19 22 -262 24 -281 1z"/>
<path d="M6797 5543 c-4 -3 -7 -14 -7 -24 0 -21 24 -35 134 -78 60 -25 81 -29
102 -21 18 7 24 16 22 31 -5 38 -225 118 -251 92z"/>
<path d="M6117 5223 c-56 -88 -87 -151 -87 -175 0 -27 22 -42 49 -33 22 7 123
208 115 229 -12 30 -52 19 -77 -21z"/>
<path d="M6036 4715 c-9 -14 -25 -25 -36 -25 -31 0 -27 -48 4 -56 13 -3 28
-16 35 -30 14 -32 27 -30 45 5 9 16 24 31 36 34 28 7 25 35 -4 47 -14 5 -30
18 -36 30 -14 26 -24 25 -44 -5z"/>
<path d="M7606 5607 c-10 -7 -17 -22 -15 -32 3 -15 15 -18 67 -19 58 -2 62 -1
62 21 0 39 -75 59 -114 30z"/>
<path d="M8284 5423 c10 -10 116 -10 116 0 0 4 -28 7 -62 7 -34 0 -58 -3 -54
-7z"/>
<path d="M8408 5405 c-6 -30 -3 -43 8 -33 3 4 4 19 2 35 l-3 28 -7 -30z"/>
<path d="M8177 5293 c-4 -3 -7 -25 -7 -49 0 -29 5 -44 16 -48 9 -3 81 -6 160
-6 l144 0 0 55 0 55 -153 0 c-85 0 -157 -3 -160 -7z"/>
<path d="M8167 5113 c-16 -15 -7 -72 12 -83 21 -11 288 -14 315 -4 11 4 16 19
16 50 l0 44 -168 0 c-93 0 -172 -3 -175 -7z"/>
<path d="M4923 4314 c-12 -33 11 -49 75 -52 72 -3 105 10 100 41 -3 20 -9 22
-86 25 -69 2 -83 0 -89 -14z"/>
<path d="M5439 4314 c-24 -29 1 -49 67 -52 81 -4 104 3 104 32 0 30 -16 36
-95 36 -45 0 -66 -4 -76 -16z"/>
<path d="M4906 3516 c-110 -41 -165 -139 -137 -243 33 -121 147 -184 267 -148
134 40 184 207 97 323 -48 64 -153 95 -227 68z m102 -80 c56 -29 77 -63 77
-123 0 -49 -3 -58 -33 -84 -76 -68 -202 -13 -202 88 0 38 40 105 70 120 32 16
55 16 88 -1z"/>
<path d="M6420 2619 c0 -16 4 -28 9 -25 8 5 3 56 -5 56 -2 0 -4 -14 -4 -31z"/>
<path d="M6292 2614 c-27 -19 -28 -41 -3 -68 l20 -21 -58 3 c-69 4 -108 -12
-144 -60 -42 -57 -47 -90 -47 -307 l0 -207 -45 -44 c-25 -24 -45 -49 -45 -56
0 -6 22 -34 49 -62 l50 -52 155 0 c92 0 157 -4 161 -10 3 -5 26 -10 50 -10 24
0 47 5 50 10 4 6 67 10 153 11 l147 0 54 60 54 60 -43 44 -42 43 1 215 c2 203
1 218 -20 262 -13 28 -39 59 -62 76 -33 24 -50 29 -99 29 -67 0 -107 -16 -160
-67 l-36 -35 -35 31 c-19 18 -43 38 -53 46 -16 12 -16 14 -3 15 8 0 26 11 38
24 l23 24 -33 31 c-39 35 -47 37 -77 15z m6 -184 c2 0 33 -28 68 -62 l65 -62
52 51 c71 69 95 83 140 83 87 0 97 -27 97 -255 l0 -172 -75 5 c-80 5 -111 -3
-178 -46 -34 -23 -39 -24 -55 -9 -53 48 -191 74 -243 47 -18 -10 -19 -5 -19
183 0 180 2 196 20 220 23 29 51 36 95 25 16 -4 31 -8 33 -8z"/>
<path d="M6508 2613 c-15 -18 -38 -57 -38 -66 0 -3 13 -10 30 -17 25 -11 33
-9 60 10 34 24 38 49 12 73 -24 22 -45 21 -64 0z"/>
<path d="M8263 2546 c-23 -20 -28 -32 -28 -71 0 -39 5 -51 28 -71 53 -45 131
-27 157 35 38 93 -80 173 -157 107z"/>
<path d="M7465 2658 c-64 -23 -123 -77 -154 -140 -65 -129 -29 -268 124 -483
117 -164 147 -158 280 55 69 112 98 176 114 247 25 120 -36 249 -144 306 -47
24 -173 33 -220 15z m158 -92 c50 -18 76 -42 98 -91 44 -96 2 -222 -116 -339
-36 -36 -69 -66 -73 -66 -11 0 -79 110 -120 191 -58 117 -53 210 16 272 26 24
88 46 127 46 17 0 47 -6 68 -13z"/>
<path d="M7513 2495 c-40 -17 -67 -58 -67 -103 0 -49 58 -102 112 -102 117 0
153 161 45 206 -40 17 -49 17 -90 -1z"/>
<path d="M7446 1864 c-22 -21 -20 -47 4 -69 17 -15 24 -16 45 -7 32 15 41 37
27 68 -13 28 -52 33 -76 8z"/>
<path d="M7667 1862 c-34 -37 -14 -72 40 -72 27 0 34 5 39 27 4 14 2 33 -3 42
-15 23 -56 25 -76 3z"/>
<path d="M7252 1858 c-27 -27 -6 -68 35 -68 31 0 52 42 33 65 -15 18 -51 20
-68 3z"/>
<path d="M7570 1777 c-48 -24 -34 -87 20 -87 51 0 68 58 25 86 -16 11 -25 11
-45 1z"/>
<path d="M7336 1759 c-20 -30 -6 -63 28 -67 33 -4 56 13 56 42 0 47 -57 63
-84 25z"/>
<path d="M7771 1742 c-13 -25 5 -52 34 -52 18 0 26 7 31 24 3 14 3 30 -1 35
-10 17 -53 13 -64 -7z"/>
<path d="M7447 1662 c-9 -10 -17 -26 -17 -35 0 -23 44 -50 69 -42 24 7 38 51
24 74 -15 23 -56 25 -76 3z"/>
<path d="M7670 1658 c-24 -26 -24 -28 -4 -56 21 -30 59 -29 80 3 15 23 15 27
0 50 -20 31 -49 32 -76 3z"/>
<path d="M7565 1556 c-28 -28 -24 -53 9 -65 30 -12 55 -2 62 25 7 27 0 40 -27
54 -15 9 -24 6 -44 -14z"/>
<path d="M6627 1352 c-32 -35 -11 -77 34 -70 32 5 45 31 31 62 -14 30 -42 34
-65 8z"/>
<path d="M6143 1333 l-93 -4 0 -134 0 -135 265 0 265 0 0 75 0 75 -35 0 -34 0
-3 58 -3 57 -58 5 c-67 6 -74 4 -79 -30 -2 -15 -9 -24 -17 -22 -8 2 -11 -3 -8
-11 4 -10 -1 -13 -19 -9 -13 2 -31 -1 -39 -8 -13 -11 -15 -6 -15 33 0 32 -5
47 -16 51 -9 3 -16 5 -17 4 -1 -1 -44 -4 -94 -5z"/>
<path d="M6752 1254 c-7 -14 -26 -30 -42 -36 -28 -9 -42 -28 -21 -28 5 0 29
-18 52 -40 44 -41 59 -48 59 -30 0 6 20 25 45 42 25 18 45 35 45 39 0 3 -15
13 -32 20 -18 7 -41 24 -51 36 -24 30 -41 29 -55 -3z"/>
<path d="M5021 1761 c-15 -26 -14 -74 1 -89 16 -16 53 -15 67 2 7 8 11 34 9
58 -3 40 -5 43 -35 46 -23 2 -34 -2 -42 -17z"/>
</g>
</svg>
